<?xml version="1.0" encoding="UTF-8"?>
<svg version="1.1" xmlns="http://www.w3.org/2000/svg" width="1254" height="1254">
<path d="M0 0 C413.82 0 827.64 0 1254 0 C1254 413.82 1254 827.64 1254 1254 C840.18 1254 426.36 1254 0 1254 C0 840.18 0 426.36 0 0 Z " fill="#FEFDFD" transform="translate(0,0)"/>
<path d="M0 0 C1.2578518 0.93366356 2.51433634 1.86916924 3.77026367 2.80541992 C4.82004646 3.58655403 4.82004646 3.58655403 5.89103699 4.38346863 C9.15604411 6.88611396 12.22998261 9.5907507 15.3125 12.3125 C20.52560833 16.87453496 25.8026286 21.32831839 31.1875 25.6875 C34.52282215 28.42987599 37.79342862 31.24179845 41.0625 34.0625 C44.96597479 37.42944349 48.88641063 40.74777182 52.9375 43.9375 C59.16498974 48.86037651 65.10093852 54.11779368 71.08300781 59.33300781 C82.46112299 69.22727302 93.89911272 79.08199539 105.625 88.5625 C110.32711755 92.38552601 114.78810557 96.42447269 119.24609375 100.52734375 C122.83207284 103.74709519 126.56701492 106.75905176 130.31640625 109.78515625 C132.94708557 111.95632827 135.47942424 114.20241357 138 116.5 C142.19729034 120.32170863 146.53710231 123.91474189 150.94921875 127.484375 C155.18257077 130.97512878 159.30662985 134.58638801 163.44091797 138.19335938 C167.17961514 141.44672198 170.95894837 144.63227506 174.8125 147.75 C179.16938253 151.27669369 183.32675904 154.97502089 187.46875 158.75 C190.0884481 161.07862053 192.7751531 163.29562947 195.5 165.5 C199.96420457 169.11149134 204.23002114 172.88660694 208.47265625 176.75390625 C211.06962393 179.06187598 213.73404013 181.25555863 216.4375 183.4375 C221.211403 187.29825137 225.73388428 191.37437075 230.25 195.53125 C232.93737634 197.94378104 235.68965444 200.2325621 238.5 202.5 C242.28460334 205.55348679 245.92207537 208.70668301 249.5 212 C253.9698512 216.11378909 258.59044893 219.97087297 263.31640625 223.78515625 C265.94708557 225.95632827 268.47942424 228.20241357 271 230.5 C275.19729034 234.32170863 279.53710231 237.91474189 283.94921875 241.484375 C287.52056499 244.42924949 291.01214487 247.45716976 294.5 250.5 C299.62251906 254.96706728 304.80918282 259.32711455 310.09765625 263.59765625 C312.38694608 265.49255968 314.63569398 267.41396402 316.87109375 269.37109375 C317.54398438 269.96019531 318.216875 270.54929687 318.91015625 271.15625 C320.23513885 272.32039656 321.55690301 273.48821921 322.875 274.66015625 C323.78572266 275.46066406 323.78572266 275.46066406 324.71484375 276.27734375 C325.25230225 276.75421631 325.78976074 277.23108887 326.34350586 277.72241211 C328.13484493 279.10400052 329.95073001 280.0524461 332 281 C339.20804055 274.83595916 346.40315412 268.65806825 353.5625 262.4375 C358.72943163 257.95035778 363.92743864 253.50322779 369.15869141 249.09130859 C374.87855442 244.26566538 380.55629443 239.39135192 386.23388672 234.51611328 C389.15442275 232.00899015 392.07732311 229.50462672 395 227 C396.16667816 226.00001341 397.33334482 225.0000134 398.5 224 C405.5 218 405.5 218 407.24975586 216.50024414 C408.41728228 215.49948394 409.5847627 214.49867008 410.75219727 213.49780273 C413.65533629 211.00899324 416.55924949 208.52109909 419.46484375 206.03515625 C427.37260752 199.2674108 435.24858766 192.4639096 443.10888672 185.64111328 C446.86085387 182.38514592 450.61566953 179.1324633 454.37036133 175.87963867 C457.5223537 173.14862455 460.67281107 170.41587685 463.8203125 167.6796875 C470.23214977 162.10863924 476.66589076 156.56730577 483.15893555 151.09106445 C488.87877801 146.26557512 494.5563819 141.39127682 500.23388672 136.51611328 C503.15442279 134.00899011 506.07735194 131.50466041 509 129 C509.57814453 128.50435547 510.15628906 128.00871094 510.75195312 127.49804688 C513.65515076 125.0091294 516.55916229 122.52117371 519.46484375 120.03515625 C528.00673351 112.72470322 536.50981703 105.37040614 545 98 C554.06365562 90.13175697 563.14607578 82.28672839 572.26611328 74.48388672 C575.17894046 71.99104476 578.08934061 69.49537234 581 67 C582.16665518 65.9999866 583.33332184 64.99998659 584.5 64 C585.36625 63.2575 585.36625 63.2575 586.25 62.5 C597.33333333 53 608.41666667 43.5 619.5 34 C620.0777417 33.5047583 620.6554834 33.0095166 621.25073242 32.49926758 C622.41481977 31.50154805 623.57904456 30.50398886 624.7434082 29.5065918 C627.70069887 26.97301257 630.65538369 24.43649863 633.60546875 21.89453125 C639.93041192 16.4499831 646.29174031 11.07396619 652.79296875 5.83984375 C654.97822558 4.08723326 654.97822558 4.08723326 656.67578125 2.25390625 C658 1 658 1 660 1 C660.35093988 25.15670131 660.61517462 49.31301878 660.77718258 73.47175884 C660.85441791 84.69013035 660.95964402 95.90691496 661.1315918 107.12426758 C661.28145251 116.90541845 661.37795395 126.6854199 661.41132742 136.46768695 C661.43082785 141.64453012 661.47639291 146.81808618 661.58595085 151.99387169 C661.6884188 156.87463733 661.71905438 161.75079106 661.69661522 166.63253021 C661.70071424 168.4156517 661.73019188 170.19894055 661.78808212 171.98112679 C662.19157648 185.05335027 662.19157648 185.05335027 658.51637578 189.99478364 C654.95361017 193.74683424 650.97001913 196.82786859 646.7317735 199.77705634 C644.57332026 201.30131267 642.60446372 202.996249 640.640625 204.76171875 C640.06860352 205.25510742 639.49658203 205.74849609 638.90722656 206.25683594 C633.96161264 210.52632586 629.06070935 214.82879411 624.25 219.25 C619.8843075 223.2540375 615.35916631 226.99999082 610.75 230.71875 C606.96094593 233.86194258 603.36730648 237.20158595 599.74609375 240.53515625 C597.08124834 242.92707297 594.35168175 245.19254884 591.5625 247.4375 C587.02683557 251.09571015 582.7429883 254.94742965 578.48071289 258.91381836 C574.39338994 262.69490558 570.11956756 266.19689966 565.78125 269.6875 C562.75980812 272.1997101 559.87558227 274.82400827 557 277.5 C552.41239887 281.76918152 547.66557272 285.75758517 542.78125 289.6875 C539.75980664 292.19971133 536.87559922 294.82402457 534 297.5 C529.38998361 301.7895776 524.62216764 305.80410897 519.71484375 309.75390625 C516.89326505 312.0883059 514.19409288 314.51990598 511.5 317 C507.94329756 320.27418423 504.32838189 323.40642433 500.5625 326.4375 C495.43252873 330.57811967 490.595352 334.9726732 485.76171875 339.44921875 C481.18829061 343.67333272 476.48329319 347.73432248 471.75 351.77734375 C470.54162052 352.80984183 469.3332885 353.84239546 468.125 354.875 C467.5163208 355.39481445 466.9076416 355.91462891 466.28051758 356.45019531 C462.74337942 359.47918656 459.25590469 362.55164023 455.8125 365.6875 C452.4991692 368.69814479 449.11058071 371.56565178 445.625 374.375 C441.07139288 378.05636689 436.76417484 381.92774473 432.48095703 385.91357422 C428.39357285 389.69476753 424.11965827 393.19682668 419.78125 396.6875 C416.75980812 399.1997101 413.87558227 401.82400827 411 404.5 C406.41239887 408.76918152 401.66557272 412.75758517 396.78125 416.6875 C393.75980516 419.19971256 390.87561617 421.82404088 388 424.5 C383.36754339 428.80999105 378.57877484 432.85061396 373.6484375 436.8203125 C370.16513546 439.68710091 366.85237056 442.72279913 363.51953125 445.76171875 C360.96795083 448.02847158 358.34828468 450.17540087 355.6875 452.3125 C350.73012504 456.31653362 346.05085863 460.56021325 341.41479492 464.92700195 C333.86684369 472.0140096 333.86684369 472.0140096 331.06640625 471.96875 C328.17463059 470.61305933 326.24619688 468.70329246 323.9375 466.5 C320.22985743 463.01721446 316.46902278 459.68888487 312.5 456.5 C307.74260332 452.66164586 303.24216082 448.60377641 298.74609375 444.46484375 C296.08124834 442.07292703 293.35168175 439.80745116 290.5625 437.5625 C286.02683557 433.90428985 281.7429883 430.05257035 277.48071289 426.08618164 C274.24806025 423.09573 270.93303234 420.26220993 267.5 417.5 C263.52370574 414.30068278 259.73331702 410.97415055 256 407.5 C251.38998361 403.2104224 246.62216764 399.19589103 241.71484375 395.24609375 C238.89326505 392.9116941 236.19409288 390.48009402 233.5 388 C229.92207537 384.70668301 226.28460334 381.55348679 222.5 378.5 C217.74116077 374.66048198 213.23937025 370.60140321 208.7421875 366.4609375 C206.09984117 364.08960105 203.39305833 361.84747003 200.625 359.625 C196.42183313 356.23612187 192.43817428 352.68740524 188.5 349 C183.79057515 344.59456466 178.95697448 340.43821861 173.9296875 336.39453125 C168.49489332 331.95249281 163.23414221 327.306137 157.94384766 322.69384766 C154.77957294 319.93653316 151.60885394 317.18666642 148.4375 314.4375 C147.81649414 313.89899414 147.19548828 313.36048828 146.55566406 312.80566406 C141.81093836 308.69455848 137.04755432 304.60565463 132.27587891 300.52587891 C128.58221177 297.36508232 124.90745311 294.18348293 121.2409668 290.99121094 C115.42117 285.9251364 109.54112381 280.96460243 103.54296875 276.109375 C100.10568375 273.25817085 96.82310197 270.25039896 93.5234375 267.2421875 C90.94917642 264.95484096 88.30710511 262.78451729 85.625 260.625 C81.6117345 257.38047268 77.77586874 254.01250676 74 250.5 C69.44351624 246.26553697 64.74438084 242.27138383 59.90234375 238.3671875 C56.61994194 235.69001994 53.39893485 232.94902369 50.1875 230.1875 C49.305177 229.42880615 49.305177 229.42880615 48.4050293 228.65478516 C47.20397171 227.62110813 46.00320856 226.58708889 44.80273438 225.55273438 C41.85104119 223.01037675 38.89471493 220.47343112 35.9375 217.9375 C35.35838867 217.44088867 34.77927734 216.94427734 34.18261719 216.43261719 C29.22390375 212.18427344 24.24378523 207.96166906 19.25390625 203.75 C16.96529266 201.8180444 14.68230099 199.87966309 12.40234375 197.9375 C11.81203369 197.43549072 11.22172363 196.93348145 10.61352539 196.41625977 C9.482752 195.45444338 8.35297652 194.49145213 7.22436523 193.52709961 C4.87826429 191.53400769 2.5657677 189.7105118 0 188 C-0.29460494 185.46039013 -0.39137207 183.16410449 -0.36076355 180.62228394 C-0.36332682 179.85286724 -0.3658901 179.08345055 -0.36853105 178.2907182 C-0.37349366 175.69864812 -0.35693568 173.10715361 -0.34057617 170.51513672 C-0.33973043 168.66264866 -0.340204 166.81015959 -0.34190369 164.95767212 C-0.34276714 159.91654161 -0.32508483 154.8756237 -0.30418181 149.83454275 C-0.28547324 144.57078716 -0.28366918 139.30702711 -0.28010559 134.04324341 C-0.27076797 124.07012643 -0.24613101 114.09710769 -0.21605712 104.12403405 C-0.18256645 92.77234322 -0.16604054 81.4206478 -0.15097082 70.0689199 C-0.11958292 46.71255873 -0.06678914 23.35628486 0 0 Z " fill="#000000" transform="translate(298,307)"/>
<path d="M0 0 C4.93855228 3.70391421 9.71822139 7.36013323 14.375 11.375 C18.20329571 14.64629195 22.05091907 17.87418024 26 21 C30.45414234 24.53010632 34.79051606 28.18437127 39.11767578 31.86767578 C42.50368895 34.74603485 45.92107244 37.57798585 49.375 40.375 C54.4944768 44.53923915 59.46950278 48.85626937 64.44165039 53.19384766 C68.17998611 56.44718689 71.95917399 59.6324576 75.8125 62.75 C79.30235888 65.57487839 82.68010514 68.47717579 86 71.5 C90.2228256 75.34436481 94.58644573 78.96525534 99.0234375 82.55859375 C102.95697925 85.78492393 106.81116825 89.09881129 110.66699219 92.41723633 C114.59524393 95.79752154 118.53925462 99.15785653 122.5 102.5 C127.77386752 106.95058614 133.01788034 111.4350004 138.24414062 115.94140625 C138.79263672 116.41320312 139.34113281 116.885 139.90625 117.37109375 C140.62264648 117.9887561 140.62264648 117.9887561 141.35351562 118.61889648 C143.08252487 120.13420156 143.08252487 120.13420156 145.56532574 121.60306168 C148.31048341 124.30567111 148.58944579 125.73065346 148.64540654 129.51539016 C148.63084234 130.24690992 148.61627813 130.97842968 148.60127258 131.7321167 C148.60768077 132.907181 148.60768077 132.907181 148.61421841 134.10598397 C148.6224612 136.73367069 148.59494367 139.35976482 148.56762695 141.98730469 C148.56621675 143.86964378 148.56700791 145.75198563 148.56983948 147.63432312 C148.57127614 152.74779972 148.54184576 157.86069184 148.50696969 162.9740324 C148.47574789 168.31650022 148.47277874 173.65898091 148.46684265 179.00152588 C148.45129194 189.11986399 148.41024676 199.23793251 148.3600952 209.35615182 C148.29379938 223.02782039 148.26677714 236.69956251 148.23758411 250.37135124 C148.19054585 271.91443616 148.09094157 293.45695213 148 315 C99.16 315 50.32 315 0 315 C0 211.05 0 107.1 0 0 Z " fill="#010101" transform="translate(298,561)"/>
<path d="M0 0 C0 103.29 0 206.58 0 313 C-48.51 313 -97.02 313 -147 313 C-147.44333338 265.4648102 -147.44333338 265.4648102 -147.53710938 245.54492188 C-147.60238052 231.79047534 -147.67910944 218.03677003 -147.82983398 204.28295898 C-147.93955491 194.26599728 -148.01045915 184.24963683 -148.03497344 174.23209089 C-148.04930163 168.92863391 -148.08291233 163.62689682 -148.16303062 158.32399178 C-148.2378845 153.32890459 -148.2606922 148.33623963 -148.24418449 143.34064484 C-148.24720265 141.51081343 -148.2689801 139.68089833 -148.31126022 137.85155296 C-148.61480744 124.03640002 -148.61480744 124.03640002 -144.59131813 118.96246147 C-141.82957476 116.68032334 -139.07613617 114.82525981 -136 113 C-134.79929117 112.03921977 -133.61763883 111.0534314 -132.46875 110.03125 C-127.51536758 105.80783972 -122.54876908 101.60946321 -117.5 97.5 C-111.82096859 92.87447007 -106.23407178 88.14532956 -100.65283203 83.40283203 C-99.02971933 82.02522412 -97.4040696 80.65068243 -95.77734375 79.27734375 C-89.57223975 74.03819087 -83.3919568 68.77137397 -77.23071289 63.48071289 C-73.33435899 60.13720178 -69.42298997 56.81220364 -65.5 53.5 C-61.00590947 49.70476273 -56.52735733 45.8920907 -52.0625 42.0625 C-51.48330811 41.56580811 -50.90411621 41.06911621 -50.30737305 40.55737305 C-47.33243959 38.00489582 -44.3602292 35.44930018 -41.390625 32.890625 C-35.25708928 27.61114701 -29.08429376 22.39815627 -22.80078125 17.296875 C-18.99655725 14.17709298 -15.24656704 10.99509171 -11.50170898 7.80444336 C-10.00524598 6.53145216 -8.50274249 5.26557225 -7 4 C-6.08992187 3.23300781 -5.17984375 2.46601562 -4.2421875 1.67578125 C-2 0 -2 0 0 0 Z " fill="#000000" transform="translate(958,562)"/>
<path d="M0 0 C2.31 1.65 4.62 3.3 7 5 C6.0248815 5.76605623 6.0248815 5.76605623 5.03006363 6.54758835 C2.26977492 9.882146 2.50687343 11.94006752 2.51898193 16.23858643 C2.51556423 16.96887645 2.51214653 17.69916646 2.50862527 18.45158648 C2.50203491 20.89943836 2.52404027 23.34619442 2.54589844 25.79394531 C2.54702667 27.54820734 2.54639353 29.30247125 2.54412842 31.05673218 C2.5429794 35.82097125 2.5665191 40.5848086 2.59442425 45.3489542 C2.6194066 50.32707757 2.6217774 55.30520985 2.62652588 60.28338623 C2.63896497 69.71107247 2.67179923 79.13857347 2.71192384 88.56617808 C2.75661249 99.29880954 2.77862128 110.03144978 2.79870558 120.7641511 C2.84053102 142.84287084 2.91090124 164.92142376 3 187 C2.01 187.33 1.02 187.66 0 188 C0 125.96 0 63.92 0 0 Z " fill="#171717" transform="translate(298,307)"/>
<path d="M0 0 C0 61.71 0 123.42 0 187 C-0.66 186.67 -1.32 186.34 -2 186 C-2 126.6 -2 67.2 -2 6 C-3.32 5.34 -4.64 4.68 -6 4 C-2.25 0 -2.25 0 0 0 Z " fill="#161516" transform="translate(958,308)"/>
<path d="M0 0 C0.66 0.33 1.32 0.66 2 1 C1.0919838 2.13199353 0.17316174 3.25532363 -0.75 4.375 C-1.26046875 5.00148438 -1.7709375 5.62796875 -2.296875 6.2734375 C-4.09137202 8.09262943 -5.69679843 8.94138561 -8 10 C-8.474375 10.495 -8.94875 10.99 -9.4375 11.5 C-11.4156595 13.39903312 -13.43558782 14.09899031 -16 15 C-12.49441279 11.44314278 -8.89446761 8.03716953 -5.1875 4.6875 C-4.21167969 3.80449219 -3.23585938 2.92148437 -2.23046875 2.01171875 C-1.49441406 1.34785156 -0.75835938 0.68398438 0 0 Z " fill="#1B1B1C" transform="translate(722,509)"/>
<path d="M0 0 C0 5.28 0 10.56 0 16 C-0.33 16 -0.66 16 -1 16 C-1.02578125 15.30132812 -1.0515625 14.60265625 -1.078125 13.8828125 C-1.13484375 12.97273438 -1.1915625 12.06265625 -1.25 11.125 C-1.29640625 10.22007812 -1.3428125 9.31515625 -1.390625 8.3828125 C-1.75611148 5.82889456 -1.75611148 5.82889456 -4.046875 4.6796875 C-4.69140625 4.45539063 -5.3359375 4.23109375 -6 4 C-2.25 0 -2.25 0 0 0 Z " fill="#1D1C1D" transform="translate(958,308)"/>
<path d="M0 0 C0.66 0.33 1.32 0.66 2 1 C1.06725891 2.12894876 0.12859878 3.25300876 -0.8125 4.375 C-1.33457031 5.00148438 -1.85664062 5.62796875 -2.39453125 6.2734375 C-4 8 -4 8 -7 10 C-7.99 9.67 -8.98 9.34 -10 9 C-6.7 6.03 -3.4 3.06 0 0 Z " fill="#1A1A1A" transform="translate(908,349)"/>
<path d="M0 0 C0.66 0.33 1.32 0.66 2 1 C1.06725891 2.12894876 0.12859878 3.25300876 -0.8125 4.375 C-1.33457031 5.00148438 -1.85664062 5.62796875 -2.39453125 6.2734375 C-4 8 -4 8 -7 10 C-7.99 9.67 -8.98 9.34 -10 9 C-6.7 6.03 -3.4 3.06 0 0 Z " fill="#1C1C1C" transform="translate(922,337)"/>
<path d="M0 0 C0.99 0.33 1.98 0.66 3 1 C-1.625 6.875 -1.625 6.875 -5 8 C-5 5 -5 5 -2.5 2.3125 C-1.675 1.549375 -0.85 0.78625 0 0 Z " fill="#EBEBEB" transform="translate(756,476)"/>
<path d="M0 0 C0.66 0.33 1.32 0.66 2 1 C-0.31 3.64 -2.62 6.28 -5 9 C-5.99 8.34 -6.98 7.68 -8 7 C-5.36 4.69 -2.72 2.38 0 0 Z " fill="#DEDEDF" transform="translate(724,697)"/>
<path d="M0 0 C0.66 0.33 1.32 0.66 2 1 C0.66667905 4.99996286 -1.4957827 5.83782337 -5 8 C-5 5 -5 5 -2.5 2.3125 C-1.675 1.549375 -0.85 0.78625 0 0 Z " fill="#1F1F21" transform="translate(937,324)"/>
<path d="M0 0 C0.99 0.33 1.98 0.66 3 1 C1.68 2.65 0.36 4.3 -1 6 C-1.99 5.67 -2.98 5.34 -4 5 C-2.68 3.35 -1.36 1.7 0 0 Z " fill="#E8E8E8" transform="translate(945,314)"/>
<path d="M0 0 C2.31 1.65 4.62 3.3 7 5 C6.01 5.66 5.02 6.32 4 7 C2.35 5.02 0.7 3.04 -1 1 C-0.67 0.67 -0.34 0.34 0 0 Z " fill="#191919" transform="translate(549,707)"/>
<path d="M0 0 C0.66 0.33 1.32 0.66 2 1 C-0.88341534 5.21422242 -3.04303419 6.76075855 -8 8 C-5.33333333 5.33333333 -2.66666667 2.66666667 0 0 Z " fill="#DFDFE0" transform="translate(915,531)"/>
</svg>
