<?xml version="1.0" encoding="UTF-8"?>
<svg version="1.1" xmlns="http://www.w3.org/2000/svg" width="1254" height="1254">
<path d="M0 0 C413.82 0 827.64 0 1254 0 C1254 413.82 1254 827.64 1254 1254 C840.18 1254 426.36 1254 0 1254 C0 840.18 0 426.36 0 0 Z " fill="#000000" transform="translate(0,0)"/>
<path d="M0 0 C3.89412531 1.94706266 6.81744145 4.24056362 10.0625 7.0625 C11.22595019 8.06061002 12.39002251 9.05799527 13.5546875 10.0546875 C14.13444336 10.55194336 14.71419922 11.04919922 15.31152344 11.56152344 C21.03859957 16.44063456 26.91381309 21.14350678 32.8125 25.8125 C37.55942063 29.59496692 42.15697999 33.53702682 46.75048828 37.50268555 C50.34959781 40.60433729 53.9898778 43.64049065 57.6875 46.625 C62.37594687 50.42792763 66.81769663 54.45113712 71.2578125 58.5390625 C73.90015883 60.91039895 76.60694167 63.15252997 79.375 65.375 C84.81386605 69.76344127 89.90728904 74.46446412 95.015625 79.2265625 C99.60942351 83.50857767 104.3543136 87.60355969 109.140625 91.66796875 C115.72419453 97.26792438 122.1936397 102.9536087 128.51953125 108.84375 C131.97713632 112.06289955 135.48029051 115.21244243 139.0546875 118.30078125 C141.3366529 120.29406428 143.57228574 122.33493027 145.8125 124.375 C149.35160002 127.57652433 152.97103106 130.63146063 156.6875 133.625 C160.41135858 136.63533603 163.80834965 139.74328617 167.125 143.1875 C169.46601973 145.45048573 171.96314131 147.45948323 174.5 149.5 C177.66397861 152.04493932 180.68353545 154.5752099 183.5 157.5 C186.18967565 160.28505422 189.03968272 162.70498616 192.0625 165.125 C197.89288339 169.81500537 203.32214786 174.87516404 208.77734375 179.9921875 C211.82137013 182.84546778 214.92966877 185.61188009 218.08984375 188.3359375 C220.36204511 190.31540126 222.58459872 192.3458317 224.8125 194.375 C228.23229328 197.46636801 231.71958524 200.42459032 235.3125 203.3125 C240.76376101 207.72138108 245.87713498 212.4352398 251 217.21484375 C253.95876022 219.97346339 256.98395085 222.64611326 260.04296875 225.29296875 C262.3855915 227.33633431 264.69273422 229.41680859 267 231.5 C270.62023723 234.76704335 274.26983565 237.99520776 277.94921875 241.1953125 C280.26088797 243.22958141 282.5353143 245.3022231 284.8125 247.375 C288.23229328 250.46636801 291.71958524 253.42459032 295.3125 256.3125 C300.23698908 260.29131906 304.88930042 264.50293199 309.49731445 268.83911133 C310.98742617 270.23765324 312.49337664 271.61926162 314 273 C314.86882812 273.79792969 315.73765625 274.59585937 316.6328125 275.41796875 C318.7942795 277.15629666 318.7942795 277.15629666 320.93359375 277.09375 C324.10443404 275.41542244 326.51334438 272.97968811 329.0625 270.5 C333.09609097 266.67035465 337.15026348 262.97467939 341.5 259.5 C346.90436782 255.16072656 351.94955123 250.49603585 357.015625 245.7734375 C361.60942351 241.49142233 366.3543136 237.39644031 371.140625 233.33203125 C378.2825133 227.2571721 385.26047177 221.05035457 392.125 214.6640625 C396.19682907 210.89098176 400.37436821 207.25585868 404.58447266 203.63867188 C412.02737614 197.23977709 419.38993588 190.78232054 426.57910156 184.09887695 C431.67056654 179.36602135 436.88228154 174.80106092 442.17578125 170.296875 C449.01819056 164.46766312 455.74117661 158.54467469 462.34375 152.4453125 C466.85086728 148.29611335 471.47519731 144.29299196 476.14453125 140.328125 C483.28413964 134.25625265 490.25900935 128.0514743 497.12109375 121.66796875 C501.66723507 117.45492327 506.33808434 113.40400738 511.0703125 109.40234375 C518.09536637 103.44549125 524.90911913 97.32788424 531.60375977 91.00170898 C535.95163223 86.91628128 540.459938 83.12719231 545.125 79.40625 C548.71380159 76.4025791 552.10119453 73.21524703 555.5 70 C560.56610242 65.20777522 565.73754708 60.69158576 571.19140625 56.33984375 C574.58239539 53.51480551 577.78767659 50.52476461 581 47.5 C585.92244507 42.87090605 590.94770468 38.47144383 596.22265625 34.2421875 C599.35853559 31.71054933 602.43137614 29.11233127 605.5 26.5 C610.31264736 22.4086152 615.1801481 18.39368517 620.0859375 14.4140625 C622.32553514 12.55873899 624.53274848 10.68173226 626.7265625 8.7734375 C627.36279541 8.22099365 627.99902832 7.6685498 628.65454102 7.09936523 C629.90882345 6.00686357 631.15943591 4.91013152 632.40600586 3.80883789 C636.78012612 0 636.78012612 0 639 0 C639.39791751 22.70502483 639.69728493 45.40947132 639.88080692 68.11728096 C639.96830345 78.66222115 640.08748066 89.20498956 640.2824707 99.74853516 C640.45243605 108.94335901 640.56170811 118.13660981 640.59950441 127.33296096 C640.62158705 132.19905527 640.67308668 137.06065165 640.79741096 141.92529678 C641.58369828 173.90422531 641.58369828 173.90422531 635.29562378 181.41497803 C631.86341732 184.60453053 628.21051003 186.91725733 624.01084709 188.96673203 C621.16950164 190.42674919 618.88811331 192.39717282 616.5 194.5 C615.654375 195.1909375 614.80875 195.881875 613.9375 196.59375 C609.37253341 200.33313753 604.81997166 204.08757037 600.26660156 207.84106445 C596.27011851 211.13446252 592.26563829 214.41745537 588.25 217.6875 C583.73440758 221.37523381 579.28256241 225.13361357 574.84155273 228.91040039 C571.36700276 231.86017814 567.85515356 234.75689965 564.3125 237.625 C559.91629634 241.20049415 555.71014141 244.94091209 551.5234375 248.7578125 C548.94917642 251.04515904 546.30710511 253.21548271 543.625 255.375 C539.07059077 259.05701535 534.76252435 262.92900357 530.47875977 266.91577148 C527.26736593 269.8868675 523.97390237 272.69946588 520.5625 275.4375 C515.78298078 279.28174639 511.30679656 283.37089045 506.83398438 287.56054688 C503.50862723 290.65765465 500.11289193 293.59614376 496.5625 296.4375 C490.84926485 301.02312295 485.54798063 305.99745542 480.20703125 311.00390625 C475.5360668 315.38116714 470.70252459 319.5514289 465.828125 323.69921875 C464.63513685 324.71581756 463.44243795 325.73275588 462.25 326.75 C461.64631592 327.26481934 461.04263184 327.77963867 460.4206543 328.31005859 C456.47514717 331.6910199 452.61880634 335.15102043 448.8125 338.6875 C445.18716792 342.05583447 441.48767607 345.2792202 437.625 348.375 C431.89477513 352.98571639 426.56914922 357.97756638 421.20703125 363.00390625 C416.5360668 367.38116714 411.70252459 371.5514289 406.828125 375.69921875 C405.63513685 376.71581756 404.44243795 377.73275588 403.25 378.75 C402.64631592 379.26481934 402.04263184 379.77963867 401.4206543 380.31005859 C397.47514349 383.69102305 393.61887462 387.15108989 389.8125 390.6875 C385.26892831 394.90754722 380.55523387 398.85671724 375.7265625 402.74609375 C371.87844889 405.92712749 368.21568518 409.29559614 364.5390625 412.671875 C360.0395878 416.79754719 355.42655145 420.78605473 350.78125 424.74609375 C344.25581575 430.3119318 337.81005591 435.93316725 331.48828125 441.73046875 C328.04000712 444.8755979 324.52911548 447.94615222 321 451 C314.8713197 446.63920825 309.36917992 441.76388395 303.8671875 436.65625 C299.27543404 432.40230946 294.54790063 428.31817235 289.78515625 424.2578125 C288.58578591 423.23455265 287.38657183 422.21110963 286.1875 421.1875 C285.58139893 420.67026367 284.97529785 420.15302734 284.35083008 419.62011719 C280.60948459 416.4151062 276.9389307 413.14798497 273.3125 409.8125 C269.83863691 406.62263156 266.30089975 403.57951106 262.625 400.625 C257.19108991 396.24055753 252.10173982 391.54499937 247 386.78515625 C244.0378076 384.02333659 241.0097866 381.34697566 237.9453125 378.69921875 C235.6633471 376.70593572 233.42771426 374.66506973 231.1875 372.625 C227.78916448 369.55253227 224.32409477 366.61557378 220.75 363.75 C215.67576994 359.6504808 210.9376967 355.26629138 206.19238281 350.79785156 C202.72973253 347.55481169 199.20731407 344.46585125 195.5 341.5 C191.1429658 338.01437264 187.05878467 334.32206333 183 330.5 C178.08693945 325.87379473 173.04878041 321.52729122 167.77734375 317.30859375 C164.57557071 314.64720435 161.53766575 311.84536335 158.5 309 C153.73913345 304.54123309 148.83531923 300.36201964 143.74609375 296.27734375 C140.73680948 293.78173531 137.86061346 291.16234857 135 288.5 C131.26672745 285.02580757 127.47628889 281.6993129 123.5 278.5 C119.52368119 275.30066303 115.7335424 271.9739272 112 268.5 C107.4714781 264.29095949 102.80023778 260.32557073 97.984375 256.44921875 C94.40724034 253.51353363 90.92252007 250.48140579 87.4375 247.4375 C82.54948147 243.17367857 77.60570462 239.02441602 72.5078125 235.01171875 C69.53759568 232.62906818 66.6440229 230.16138809 63.75 227.6875 C59.2715083 223.86436511 54.7150888 220.17143858 50.0625 216.5625 C44.64725655 212.35990466 39.42803998 207.97594865 34.25244141 203.48291016 C29.68252847 199.53576111 24.97900075 195.79367669 20.20605469 192.09619141 C15.38264352 188.34419444 10.71237844 184.43063262 6.08569336 180.43920898 C3.22463534 177.9568301 3.22463534 177.9568301 0 176 C0 117.92 0 59.84 0 0 Z " fill="#FDFCFD" transform="translate(308,365)"/>
<path d="M0 0 C5.11088679 3.83316509 10.02014136 7.62887052 14.8125 11.8125 C18.99681113 15.43353848 23.20146011 19.01418257 27.5 22.5 C32.2938847 26.39415268 36.98962702 30.39145238 41.67016602 34.42016602 C45.5747676 37.78085357 49.4982329 41.11754598 53.4375 44.4375 C62.48707019 52.07719855 71.48879025 59.7802149 80.25 67.75 C83.54292966 70.73863253 86.91316769 73.58383605 90.375 76.375 C94.92940923 80.05701535 99.23747565 83.92900357 103.52124023 87.91577148 C106.73263407 90.8868675 110.02609763 93.69946588 113.4375 96.4375 C118.26088611 100.31854584 122.81184278 104.4282149 127.32202148 108.66381836 C127.82934814 109.13956299 128.3366748 109.61530762 128.859375 110.10546875 C129.33407447 110.56830702 129.80877394 111.03114529 130.29785824 111.50800896 C131.93165584 113.04309491 131.93165584 113.04309491 133.81001377 114.01936531 C136.15093072 115.46970759 137.4558263 116.69886125 139 119 C140.05304579 124.4429874 139.88487206 129.86160694 139.79467773 135.37841797 C139.79270224 137.06400978 139.79381346 138.74960761 139.79777527 140.43519592 C139.79978197 145.00340629 139.75865762 149.57032744 139.70975757 154.13823843 C139.66596827 158.91477497 139.66188409 163.6913418 139.65357971 168.4680481 C139.63183162 177.50982948 139.57440034 186.5510177 139.50413328 195.592538 C139.41122613 207.81277812 139.37346941 220.03318071 139.33261776 232.253685 C139.26681647 251.50290089 139.12735723 270.75086509 139 290 C93.13 290 47.26 290 0 290 C0 194.3 0 98.6 0 0 Z " fill="#FCFCFC" transform="translate(308,601)"/>
<path d="M0 0 C0 95.37 0 190.74 0 289 C-45.87 289 -91.74 289 -139 289 C-139.44333338 246.22952446 -139.44333338 246.22952446 -139.53710938 228.29882812 C-139.60236717 215.92046958 -139.6790572 203.54293498 -139.82983398 191.1652832 C-139.93959589 182.15033737 -140.01046852 173.13606023 -140.03497344 164.12046474 C-140.04929519 159.34789063 -140.08286042 154.57722918 -140.16303062 149.80526924 C-140.23795157 145.30914316 -140.26068008 140.81570844 -140.24418449 136.31901741 C-140.24719982 134.67300255 -140.26894033 133.02689363 -140.31126022 131.38142014 C-140.61480237 118.96546226 -140.61480237 118.96546226 -136.59406471 114.07160759 C-133.82981525 111.79019444 -131.04633384 109.87986245 -128 108 C-126.77607888 107.00953496 -125.56645306 106.00023162 -124.390625 104.953125 C-123.87185791 104.50783447 -123.35309082 104.06254395 -122.81860352 103.60375977 C-122.30096436 103.15701904 -121.7833252 102.71027832 -121.25 102.25 C-120.37976196 101.50157837 -120.37976196 101.50157837 -119.49194336 100.73803711 C-113.9174803 95.93956677 -108.35891197 91.12265174 -102.8046875 86.30078125 C-100.22965583 84.06540916 -97.65131954 81.83393864 -95.0703125 79.60546875 C-89.58589898 74.86721528 -84.11100789 70.12826311 -78.75 65.25 C-75.43560714 62.24239392 -72.04340917 59.37570304 -68.5625 56.5625 C-64.75912497 53.48663412 -61.09917348 50.31246834 -57.5 47 C-53.12963181 42.98148349 -48.62525525 39.20212924 -44.0078125 35.47265625 C-40.49298494 32.58319411 -37.0559488 29.61311906 -33.625 26.625 C-27.31010379 21.12825714 -20.96325131 15.67388571 -14.54638672 10.29638672 C-13.49718665 9.41680788 -12.44937893 8.53556603 -11.40283203 7.65283203 C-9.87708533 6.3675231 -8.34491828 5.08984735 -6.8125 3.8125 C-5.93207031 3.07644531 -5.05164063 2.34039063 -4.14453125 1.58203125 C-2 0 -2 0 0 0 Z " fill="#FDFDFD" transform="translate(947,602)"/>
<path d="M0 0 C16.89806083 -0.0700362 33.79607646 -0.12296167 50.69424915 -0.15543652 C58.5401119 -0.17091496 66.38588454 -0.19202306 74.23168945 -0.22631836 C81.06894368 -0.25619091 87.90613267 -0.27556789 94.74345034 -0.28226548 C98.36482899 -0.28618142 101.98602096 -0.29540442 105.60733986 -0.31719017 C109.64692136 -0.34129575 113.68617693 -0.34197138 117.72583008 -0.34057617 C119.53304535 -0.35675491 119.53304535 -0.35675491 121.37677002 -0.3732605 C122.47473404 -0.36913651 123.57269806 -0.36501251 124.70393372 -0.36076355 C126.1377827 -0.36491162 126.1377827 -0.36491162 127.60059834 -0.36914349 C130 0 130 0 133 3 C87.13 3 41.26 3 -6 3 C-6 2.67 -6 2.34 -6 2 C-4.02 1.67 -2.04 1.34 0 1 C0 0.67 0 0.34 0 0 Z " fill="#EAEAEA" transform="translate(814,888)"/>
<path d="M0 0 C0 0.66 0 1.32 0 2 C-43.56 1.67 -87.12 1.34 -132 1 C-132 0.67 -132 0.34 -132 0 C-115.08469614 -0.15381373 -98.16935301 -0.30184937 -81.25393867 -0.4429636 C-73.40022264 -0.50861746 -65.54653158 -0.57617823 -57.69287109 -0.64819336 C-50.84943022 -0.71094035 -44.00596956 -0.77014498 -37.16246116 -0.82505554 C-33.53725464 -0.85426806 -29.91208332 -0.88528167 -26.28693008 -0.92053413 C-22.24486756 -0.95977454 -18.20278154 -0.99110772 -14.16064453 -1.02172852 C-12.95223907 -1.03467453 -11.74383362 -1.04762054 -10.49880981 -1.06095886 C-8.85392578 -1.0715181 -8.85392578 -1.0715181 -7.17581177 -1.08229065 C-6.21899065 -1.09058679 -5.26216953 -1.09888292 -4.27635384 -1.10743046 C-2 -1 -2 -1 0 0 Z " fill="#F5F5F6" transform="translate(447,888)"/>
<path d="M0 0 C2.475 0.99 2.475 0.99 5 2 C4.67 2.66 4.34 3.32 4 4 C3.34 4 2.68 4 2 4 C2 37 2 70 2 104 C1.67 104 1.34 104 1 104 C0.67 69.68 0.34 35.36 0 0 Z " fill="#F3F3F3" transform="translate(309,603)"/>
<path d="M0 0 C0.66 0.33 1.32 0.66 2 1 C-2.81954715 5.91593809 -7.60705666 10.71330145 -13 15 C-13.66 14.67 -14.32 14.34 -15 14 C-10.20922972 9.0744893 -5.22325977 4.46351289 0 0 Z " fill="#DCDBDC" transform="translate(853,444)"/>
<path d="M0 0 C0.66 0.33 1.32 0.66 2 1 C-4.92938497 9.81548975 -4.92938497 9.81548975 -11 11 C-7.33333333 7.33333333 -3.66666667 3.66666667 0 0 Z " fill="#242424" transform="translate(749,709)"/>
<path d="M0 0 C-1.55500981 3.81684226 -4.03595495 6.19195732 -7 9 C-7.99 8.67 -8.98 8.34 -10 8 C-8.71451591 6.66070495 -7.42141845 5.32871357 -6.125 4 C-5.04605469 2.88625 -5.04605469 2.88625 -3.9453125 1.75 C-2 0 -2 0 0 0 Z " fill="#E8E8E8" transform="translate(715,568)"/>
<path d="M0 0 C0.66 0.33 1.32 0.66 2 1 C-0.63848309 4.61569905 -2.95293333 7.02835214 -7 9 C-7.99 9 -8.98 9 -10 9 C-6.7 6.03 -3.4 3.06 0 0 Z " fill="#1F1F1F" transform="translate(690,761)"/>
<path d="M0 0 C0.66 0.66 1.32 1.32 2 2 C-1.465 4.97 -1.465 4.97 -5 8 C-5.66 7.34 -6.32 6.68 -7 6 C-4.69 4.02 -2.38 2.04 0 0 Z " fill="#141415" transform="translate(710,744)"/>
<path d="M0 0 C0.66 0 1.32 0 2 0 C2 0.66 2 1.32 2 2 C2.8971875 2.37125 2.8971875 2.37125 3.8125 2.75 C6.28647521 4.16370012 7.43370255 5.65055383 9 8 C6 8 6 8 4.39453125 6.50390625 C3.61142578 5.54291016 3.61142578 5.54291016 2.8125 4.5625 C2.28269531 3.92441406 1.75289063 3.28632812 1.20703125 2.62890625 C0 1 0 1 0 0 Z " fill="#161616" transform="translate(394,672)"/>
<path d="M0 0 C0.66 0.33 1.32 0.66 2 1 C1 4 1 4 -1.4375 5.75 C-2.7059375 6.36875 -2.7059375 6.36875 -4 7 C-4.66 6.67 -5.32 6.34 -6 6 C-4.02 4.02 -2.04 2.04 0 0 Z " fill="#E0DFDF" transform="translate(756,530)"/>
<path d="M0 0 C0.66 0.33 1.32 0.66 2 1 C0.02 3.31 -1.96 5.62 -4 8 C-4.99 7.67 -5.98 7.34 -7 7 C-4.69 4.69 -2.38 2.38 0 0 Z " fill="#1C1C1D" transform="translate(700,752)"/>
<path d="M0 0 C0.66 0.33 1.32 0.66 2 1 C0.75453595 4.73639216 -0.63404953 5.18756513 -4 7 C-4 4 -4 4 -2 1.8125 C-1.34 1.214375 -0.68 0.61625 0 0 Z " fill="#1C1C1D" transform="translate(724,731)"/>
<path d="M0 0 C0.66 0.33 1.32 0.66 2 1 C0.02 3.31 -1.96 5.62 -4 8 C-4.66 7.34 -5.32 6.68 -6 6 C-4.02 4.02 -2.04 2.04 0 0 Z " fill="#DEDDDD" transform="translate(773,515)"/>
</svg>
